<?xml version="1.0" encoding="UTF-8"?>
<!DOCTYPE svg PUBLIC "-//W3C//DTD SVG 1.1//EN" "http://www.w3.org/Graphics/SVG/1.1/DTD/svg11.dtd">
<svg version="1.1" xmlns="http://www.w3.org/2000/svg" xmlns:xlink="http://www.w3.org/1999/xlink" x="0" y="0" width="396" height="804" viewBox="0, 0, 396, 804">
  <g id="arbre" transform="translate(-2.5, -28)">
    <path d="M202.161,28.055 C224.609,29.582 241.435,47.65 242,70 C242.049,74.282 241.299,78.498 240.032,82.572 L325.661,132.01 C333.731,123.297 344.723,118.798 356.5,118.5 C379.696,118.5 398.5,137.304 398.5,160.5 C398.401,179.838 384.65,197.569 365.5,201.484 L365.5,299.516 C384.947,303.349 398.013,321.232 398.5,340.5 C398.401,359.839 384.65,377.569 365.5,381.484 L365.5,479.516 C384.947,483.349 398.013,501.232 398.5,520.5 C398.5,543.696 379.696,562.5 356.5,562.5 C351.959,562.592 347.54,561.655 343.233,560.317 L228.452,759.123 C237.184,767.202 241.702,778.2 242,790 C242,813.196 223.196,832 200,832 C176.804,832 158,813.196 158,790 C158.198,778.458 162.82,766.287 171.926,758.774 L57.41,560.427 C53.268,561.926 48.874,562.389 44.5,562.5 C21.304,562.5 2.5,543.696 2.5,520.5 C2.599,501.161 16.351,483.432 35.5,479.516 L35.5,381.484 C16.053,377.65 2.987,359.769 2.5,340.5 C2.599,321.161 16.351,303.432 35.5,299.516 L35.5,201.484 C16.053,197.65 2.987,179.769 2.5,160.5 C2.5,137.304 21.304,118.5 44.5,118.5 C55.983,118.473 66.597,123.268 74.647,131.318 L159.832,82.137 C158.483,78.236 158.104,74.099 158,70 C158,46.804 176.804,28 200,28 L202.161,28.055 z M200,30 C177.909,30 160,47.909 159.999,69.949 C160.119,74.688 160.603,78.246 161.722,81.483 L162.262,83.044 L160.832,83.869 L75.647,133.05 L74.318,133.818 L73.233,132.733 C65.368,124.867 55.203,120.475 44.5,120.5 C22.409,120.5 4.5,138.409 4.499,160.449 C4.979,179.423 17.939,195.984 35.887,199.521 L37.5,199.839 L37.5,301.149 L35.901,301.476 C17.909,305.155 4.595,321.874 4.499,340.449 C4.979,359.423 17.939,375.984 35.887,379.521 L37.5,379.839 L37.5,481.149 L35.901,481.476 C17.909,485.155 4.595,501.874 4.5,520.5 C4.5,542.591 22.409,560.5 44.449,560.5 C49.37,560.376 53.24,559.809 56.73,558.546 L58.305,557.977 L59.142,559.427 L173.658,757.774 L174.504,759.24 L173.199,760.317 C165.019,767.065 160.2,778.341 160,790 C160,812.091 177.909,830 200,830 C222.091,830 240,812.091 240.001,790.05 C239.709,778.499 235.231,768.12 227.094,760.591 L225.921,759.506 L226.72,758.123 L341.501,559.316 L342.3,557.932 L343.827,558.407 C348.527,559.868 352.559,560.579 356.5,560.5 C378.591,560.5 396.5,542.591 396.5,520.55 C396.021,501.577 383.061,485.016 365.113,481.478 L363.5,481.161 L363.5,379.851 L365.099,379.524 C383.091,375.846 396.405,359.126 396.5,340.55 C396.021,321.577 383.061,305.016 365.113,301.478 L363.5,301.161 L363.5,199.851 L365.099,199.524 C383.091,195.846 396.405,179.126 396.5,160.5 C396.5,138.409 378.591,120.5 356.551,120.499 C345.012,120.791 334.642,125.256 327.128,133.369 L326.043,134.54 L324.661,133.742 L239.032,84.304 L237.648,83.505 L238.122,81.978 C239.4,77.87 240.044,73.89 240,70 C239.539,47.65 223.854,32.261 202.058,30.052 L200,30 z M325.471,545.671 L326.548,546.976 C327.16,547.717 327.122,547.673 327.254,547.801 C327.272,547.818 327.633,548.161 327.824,548.345 C328.187,548.695 328.622,549.123 329.184,549.685 L330.27,550.77 L329.502,552.099 L214.628,751.068 L213.852,752.411 L212.358,751.995 C211.613,751.787 211.041,751.621 210.582,751.482 C210.411,751.43 210.263,751.385 210.115,751.338 C209.949,751.285 209.881,751.264 209.844,751.252 C209.696,751.206 209.745,751.216 209.021,751.095 L207.35,750.816 L207.35,648.779 L208.95,648.453 C226.685,644.826 239.892,627.993 240.001,609.55 C239.88,604.783 239.385,601.181 238.244,597.909 L237.699,596.346 L239.133,595.518 L324.006,546.517 L325.471,545.671 z M325.006,548.249 L240.133,597.25 C241.505,601.186 241.895,605.361 242,609.5 C241.889,628.579 228.36,646.526 209.35,650.412 L209.35,749.122 C210.814,749.367 209.61,749.152 212.896,750.068 L327.77,551.099 C325.261,548.59 326.119,549.598 325.006,548.249 z M75.437,545.782 L76.902,546.628 L160.976,595.168 L162.36,595.967 L161.886,597.494 C160.602,601.625 159.954,605.609 159.999,609.449 C160.482,628.555 173.573,645.088 191.729,648.591 L193.35,648.904 L193.35,750.669 L191.634,750.915 C190.662,751.054 190.743,751.041 190.623,751.077 C190.575,751.092 190.131,751.237 189.916,751.306 C189.445,751.455 188.884,751.625 188.152,751.836 L186.647,752.272 L185.864,750.915 L71.231,552.365 L70.464,551.036 L71.549,549.951 C72.168,549.333 72.647,548.862 73.038,548.486 C73.273,548.26 73.789,547.773 73.67,547.885 C73.82,547.743 73.791,547.777 74.36,547.087 L75.437,545.782 z M75.902,548.36 C74.801,549.695 75.705,548.624 72.963,551.366 L187.596,749.915 C190.86,748.971 189.585,749.188 191.35,748.935 L191.35,650.555 C171.745,646.772 158.492,628.968 158,609.5 C157.949,605.208 158.707,600.983 159.976,596.9 L75.902,548.36 z M317.149,527.5 L317.476,529.099 C317.537,529.4 317.737,530.414 317.761,530.506 C317.785,530.597 318.087,531.545 318.198,531.903 L318.673,533.43 L317.289,534.229 L232.328,583.281 L230.862,584.128 L229.785,582.822 C224.851,576.842 217.153,572.4 208.91,570.539 L207.35,570.187 L207.35,527.5 L317.149,527.5 z M315.516,529.5 L209.35,529.5 L209.35,568.588 C217.61,570.453 225.878,574.943 231.328,581.549 L316.289,532.497 C315.671,530.51 315.927,531.51 315.516,529.5 z M193.35,527.5 L193.35,570.077 L191.751,570.404 C183.613,572.068 176.209,576.332 170.37,582.629 L169.285,583.799 L167.903,583.002 L83.668,534.368 L82.284,533.569 L82.758,532.042 C82.901,531.583 83.207,530.626 83.232,530.533 C83.25,530.464 83.268,530.383 83.31,530.169 C83.385,529.786 83.444,529.494 83.524,529.099 L83.851,527.5 L193.35,527.5 z M191.35,529.5 L85.483,529.5 C85.063,531.557 85.329,530.51 84.668,532.636 L168.903,581.269 C174.92,574.78 182.659,570.221 191.35,568.445 L191.35,529.5 z M169.69,456.291 L170.776,457.376 C177.14,463.74 184.141,467.827 191.704,469.186 L193.35,469.482 L193.35,513.5 L83.851,513.5 L83.524,511.9 C83.445,511.513 83.285,510.715 83.292,510.747 C83.248,510.531 83.227,510.44 83.202,510.35 C83.178,510.262 82.822,509.163 82.58,508.384 L82.105,506.858 L83.49,506.059 L168.361,457.058 L169.69,456.291 z M169.361,458.79 L84.49,507.791 C85.329,510.49 85.023,509.247 85.484,511.5 L191.35,511.5 L191.35,471.155 C182.767,469.612 175.43,464.859 169.361,458.79 z M230.641,455.897 L232.009,456.687 L317.512,506.052 L318.897,506.852 L318.422,508.378 C318.179,509.159 317.823,510.26 317.798,510.349 C317.773,510.439 317.752,510.53 317.708,510.746 C317.714,510.717 317.555,511.514 317.476,511.9 L317.149,513.5 L207.35,513.5 L207.35,469.379 L208.95,469.052 C216.546,467.499 223.692,463.25 229.555,457.046 L230.641,455.897 z M231.009,458.419 C225.183,464.584 217.737,469.297 209.35,471.012 L209.35,511.5 L315.516,511.5 C315.977,509.245 315.671,510.49 316.512,507.784 L231.009,458.419 z M325.762,366.022 L326.839,367.328 C331.752,373.286 339.526,377.672 347.932,379.531 L349.5,379.878 L349.5,481.149 L347.901,481.476 C340.05,483.081 332.779,487.327 326.948,493.55 L325.863,494.708 L324.488,493.914 L238.987,444.55 L237.602,443.751 L238.077,442.224 C239.392,437.995 240.052,433.996 240.001,430.15 C239.88,425.366 239.377,421.736 238.224,418.442 L237.676,416.878 L239.111,416.049 L324.296,366.868 L325.762,366.022 z M325.296,368.6 L240.111,417.781 C241.497,421.739 241.895,425.936 242,430.1 C242.058,434.436 241.269,438.695 239.987,442.818 L325.488,492.182 C331.4,485.874 338.983,481.258 347.5,479.516 L347.5,381.484 C339.198,379.648 330.784,375.256 325.296,368.6 z M75.313,366.002 L76.739,366.826 L161.057,415.507 L162.442,416.306 L161.967,417.833 C160.615,422.182 159.94,426.195 159.999,430.049 C160.125,435.036 160.727,439.029 162.045,442.625 L162.624,444.205 L161.167,445.046 L76.516,493.919 L75.187,494.686 L74.102,493.601 C67.489,486.989 60.632,482.852 53.141,481.484 L51.5,481.184 L51.5,379.851 L53.099,379.524 C61.171,377.874 68.855,373.417 74.231,367.244 L75.313,366.002 z M75.739,368.558 C70.052,375.087 61.967,379.753 53.5,381.484 L53.5,479.516 C62.167,481.099 69.411,486.082 75.516,492.187 L160.167,443.314 C158.614,439.075 158.113,434.583 158,430.1 C157.933,425.71 158.761,421.41 160.057,417.239 L75.739,368.558 z M317.149,347.5 L317.476,349.099 C317.556,349.492 317.752,350.477 317.699,350.213 C317.742,350.427 317.762,350.513 317.783,350.593 C317.809,350.687 318.137,351.704 318.335,352.343 L318.81,353.869 L317.425,354.669 L232.282,403.826 L230.817,404.672 L229.74,403.367 C229.3,402.833 229.331,402.869 229.206,402.752 C229.016,402.575 228.856,402.425 228.631,402.209 C228.283,401.874 227.85,401.449 227.292,400.891 L226.207,399.806 L226.974,398.477 L255.829,348.5 L256.406,347.5 L317.149,347.5 z M315.516,349.5 L257.561,349.5 L228.706,399.477 C231.161,401.931 230.374,400.993 231.282,402.094 L316.425,352.936 C315.671,350.51 315.958,351.66 315.516,349.5 z M144.318,347.5 L144.895,348.5 L173.485,398.018 L174.252,399.347 L173.167,400.432 L170.511,403.088 L169.426,404.173 L168.097,403.406 L83.591,354.616 L82.206,353.817 L82.681,352.29 C82.871,351.681 83.194,350.676 83.219,350.582 C83.24,350.504 83.259,350.419 83.302,350.205 C83.316,350.138 83.338,350.024 83.388,349.772 C83.433,349.55 83.475,349.339 83.524,349.099 L83.851,347.5 L144.318,347.5 z M143.163,349.5 L85.483,349.5 C85.046,351.642 85.329,350.51 84.591,352.884 L169.097,401.673 L171.753,399.018 L143.163,349.5 z M240.24,347.5 L238.508,350.5 L214.968,391.273 L214.168,392.658 L212.642,392.183 C211.574,391.851 210.285,391.429 210.329,391.442 C210.163,391.392 210.634,391.491 208.95,391.147 L207.35,390.82 L207.35,347.5 L240.24,347.5 z M236.776,349.5 L209.35,349.5 L209.35,389.187 C211.433,389.613 210.124,389.306 213.236,390.273 L236.776,349.5 z M193.35,347.5 L193.35,390.677 L191.751,391.004 C191.462,391.063 191.205,391.115 190.943,391.167 C190.823,391.191 190.478,391.259 190.418,391.271 C190.146,391.325 190.036,391.349 189.935,391.376 C189.806,391.41 188.592,391.8 187.972,391.992 L186.445,392.467 L185.646,391.082 L162.216,350.5 L160.484,347.5 L193.35,347.5 z M191.35,349.5 L163.948,349.5 L187.378,390.082 C190.104,389.235 188.777,389.57 191.35,389.044 L191.35,349.5 z M317.149,167.5 L317.476,169.099 C319.072,176.907 323.28,184.15 329.431,189.933 L330.585,191.018 L329.793,192.39 L248.9,332.5 L248.323,333.5 L207.35,333.5 L207.35,167.5 L317.149,167.5 z M315.516,169.5 L209.35,169.5 L209.35,331.5 L247.168,331.5 L328.061,191.39 C321.807,185.511 317.244,177.953 315.516,169.5 z M342.689,198.053 L344.216,198.527 C345.075,198.795 346.232,199.17 346.314,199.193 C346.411,199.221 346.504,199.242 346.722,199.287 C346.747,199.292 347.519,199.446 347.901,199.524 L349.5,199.851 L349.5,301.149 L347.901,301.476 C332.962,304.53 320.497,316.982 317.476,331.897 L317.152,333.5 L264.489,333.5 L266.221,330.5 L341.89,199.437 L342.689,198.053 z M343.622,200.437 L267.953,331.5 L315.516,331.5 C318.701,315.776 331.798,302.727 347.5,299.516 L347.5,201.484 C345.189,201.011 346.49,201.329 343.622,200.437 z M193.35,167.5 L193.35,333.5 L152.401,333.5 L151.824,332.5 L71.032,192.565 L70.265,191.236 L71.35,190.15 C78.004,183.496 82.15,176.644 83.516,169.142 L83.815,167.5 L193.35,167.5 z M191.35,169.5 L85.483,169.5 C83.9,178.196 78.886,185.443 72.764,191.565 L153.556,331.5 L191.35,331.5 L191.35,169.5 z M58.077,198.126 L58.876,199.51 L134.503,330.5 L136.235,333.5 L83.851,333.5 L83.524,331.901 C80.47,316.962 68.018,304.497 53.103,301.477 L51.5,301.152 L51.5,199.851 L53.099,199.524 C53.488,199.445 54.307,199.281 54.243,199.294 C54.459,199.25 54.548,199.23 54.636,199.206 C54.726,199.181 55.804,198.832 56.55,198.6 L58.077,198.126 z M57.144,200.51 C54.51,201.329 55.731,201.028 53.5,201.484 L53.5,299.516 C69.224,302.701 82.273,315.798 85.484,331.5 L132.771,331.5 L57.144,200.51 z M230.744,95.684 L232.115,96.476 L317.584,145.821 L318.968,146.621 L318.494,148.147 C318.217,149.039 317.833,150.22 317.81,150.299 C317.782,150.399 317.76,150.493 317.715,150.712 C317.707,150.753 317.553,151.522 317.476,151.901 L317.149,153.5 L207.35,153.5 L207.35,109.28 L208.95,108.952 C216.588,107.391 223.761,103.106 229.658,96.838 L230.744,95.684 z M231.115,98.208 C225.266,104.425 217.793,109.186 209.35,110.912 L209.35,151.5 L315.516,151.5 C315.994,149.166 315.671,150.49 316.584,147.554 L231.115,98.208 z M169.064,95.282 L170.141,96.588 C175.267,102.8 183.19,107.294 191.762,109.098 L193.35,109.432 L193.35,153.5 L83.851,153.5 L83.524,151.901 C83.037,149.518 83.206,150.322 83.137,150.092 C83.141,150.106 82.623,148.524 82.219,147.223 L81.744,145.696 L83.129,144.897 L167.598,96.129 L169.064,95.282 z M168.598,97.861 L84.129,146.629 C85.329,150.49 84.942,148.849 85.484,151.5 L191.35,151.5 L191.35,111.055 C182.759,109.247 174.251,104.712 168.598,97.861 z" fill="#000000" id="arbre_sefirot"/>
  </g>
</svg>
